<svg viewBox="335 307.1049 407.414 79.7901" width="200" height="55" xmlns="http://www.w3.org/2000/svg" xmlns:xlink="http://www.w3.org/1999/xlink" preserveAspectRatio="none"><defs></defs><style>.aD6z1nYkhcolor {fill:#9AECED;fill-opacity:1;}.aFNvU601eZ0filter-floo {flood-color:#2C3B96;flood-opacity:0.5;}.companyName {fill:#F1F1F1;fill-opacity:1;}.icon1 {fill:#9AECED;fill-opacity:1;}.icon2 {fill:#E592B5;fill-opacity:1;}.icon3 {fill:#2C3B96;fill-opacity:1;}.shapeStroke-str {stroke:#F1F1F1;stroke-opacity:1;}</style><defs>
      <filter
        x="-1000"
        y="-1000"
        width="5000"
        height="5000"
        id="FNvU601eZ"
        filterUnits="userSpaceOnUse"
        primitiveUnits="userSpaceOnUse"
        color-interpolation-filters="sRGB">
        <feMerge><feMergeNode in="SourceGraphic" /></feMerge>
      </filter></defs><g opacity="1" transform="rotate(0 335 317.9854)">
<svg width="90.0309" height="58.0292" x="335" y="317.9854" version="1.1" preserveAspectRatio="none" viewBox="20 25 160 149.67800903320312">
  <g transform="matrix(1 0 0 1 0 0)" ><g><path clip-rule="evenodd" fill-rule="evenodd" d="M69.032 25a7.742 7.742 0 0 1 7.742 7.742v134.194a7.742 7.742 0 1 1-15.484 0V32.742A7.742 7.742 0 0 1 69.032 25zm20.645 12.903a7.742 7.742 0 0 1 7.742 7.742v108.387a7.742 7.742 0 1 1-15.484 0V45.645a7.742 7.742 0 0 1 7.742-7.742zm-41.29 10.323a7.742 7.742 0 0 1 7.742 7.742v87.742a7.742 7.742 0 1 1-15.484 0V55.968a7.742 7.742 0 0 1 7.742-7.742zm103.226 10.322a7.742 7.742 0 0 1 7.742 7.742v67.097a7.742 7.742 0 1 1-15.484 0V66.29a7.742 7.742 0 0 1 7.742-7.742zm-41.29 0a7.742 7.742 0 0 1 7.742 7.742v67.097a7.742 7.742 0 1 1-15.484 0V66.29a7.742 7.742 0 0 1 7.742-7.742zm20.645 12.904a7.742 7.742 0 0 1 7.742 7.742v41.29a7.742 7.742 0 1 1-15.484 0v-41.29a7.742 7.742 0 0 1 7.742-7.742zM27.742 79.194a7.742 7.742 0 0 1 7.742 7.742v23.226A7.742 7.742 0 1 1 20 110.161V86.935a7.742 7.742 0 0 1 7.742-7.741z" data-color="1" class="icon1"></path><path clip-rule="evenodd" fill-rule="evenodd" d="M172.258 81.774A7.742 7.742 0 0 1 180 89.516v20.645a7.742 7.742 0 1 1-15.484 0V89.516a7.742 7.742 0 0 1 7.742-7.742z" data-color="2" class="icon2"></path><path opacity=".9" clip-rule="evenodd" fill-rule="evenodd" d="M151.613 58.548a7.742 7.742 0 0 1 7.742 7.742v67.097a7.742 7.742 0 1 1-15.484 0V66.29a7.742 7.742 0 0 1 7.742-7.742z" data-color="2" class="icon2"></path><path opacity=".75" clip-rule="evenodd" fill-rule="evenodd" d="M130.968 71.452a7.742 7.742 0 0 1 7.742 7.742v41.29a7.742 7.742 0 1 1-15.484 0v-41.29a7.742 7.742 0 0 1 7.742-7.742z" data-color="2" class="icon2"></path><path opacity=".6" clip-rule="evenodd" fill-rule="evenodd" d="M110.323 58.548a7.742 7.742 0 0 1 7.742 7.742v67.097a7.742 7.742 0 1 1-15.484 0V66.29a7.742 7.742 0 0 1 7.742-7.742z" data-color="2" class="icon2"></path><path opacity=".45" clip-rule="evenodd" fill-rule="evenodd" d="M89.677 37.903a7.742 7.742 0 0 1 7.742 7.742v108.387a7.742 7.742 0 1 1-15.484 0V45.645a7.742 7.742 0 0 1 7.742-7.742z" data-color="2" class="icon2"></path><path opacity=".3" clip-rule="evenodd" fill-rule="evenodd" d="M69.032 25a7.742 7.742 0 0 1 7.742 7.742v134.194a7.742 7.742 0 1 1-15.484 0V32.742A7.742 7.742 0 0 1 69.032 25z" data-color="2" class="icon2"></path><path opacity=".15" clip-rule="evenodd" fill-rule="evenodd" d="M48.387 48.226a7.742 7.742 0 0 1 7.742 7.742v87.742a7.742 7.742 0 1 1-15.484 0V55.968a7.742 7.742 0 0 1 7.742-7.742z" data-color="2" class="icon2"></path></g></g>
</svg>
</g><g opacity="1" transform="rotate(0 453 325)">
<svg width="289.414" height="56.9535" x="450" y="325" version="1.1" preserveAspectRatio="none" viewBox="0.88 -29.2 193.72 38.12">
  <g transform="matrix(1 0 0 1 0 0)" class="aD6z1nYkhcolor"><path d="M22.32-25.44L19.88-20.96Q19.60-21.24 18.86-21.72Q18.12-22.20 17.06-22.66Q16-23.12 14.76-23.44Q13.52-23.76 12.24-23.76L12.24-23.76Q9.96-23.76 8.84-22.92Q7.72-22.08 7.72-20.56L7.72-20.56Q7.72-19.68 8.14-19.10Q8.56-18.52 9.36-18.08Q10.16-17.64 11.38-17.28Q12.60-16.92 14.20-16.52L14.20-16.52Q16.28-15.96 17.98-15.32Q19.68-14.68 20.86-13.72Q22.04-12.76 22.68-11.42Q23.32-10.08 23.32-8.12L23.32-8.12Q23.32-5.84 22.46-4.22Q21.60-2.60 20.14-1.60Q18.68-0.60 16.78-0.14Q14.88 0.32 12.80 0.32L12.80 0.32Q9.60 0.32 6.48-0.64Q3.36-1.60 0.88-3.36L0.88-3.36L3.32-8.12Q3.68-7.76 4.62-7.18Q5.56-6.60 6.84-6.02Q8.12-5.44 9.68-5.04Q11.24-4.64 12.88-4.64L12.88-4.64Q17.44-4.64 17.44-7.56L17.44-7.56Q17.44-8.48 16.92-9.12Q16.40-9.76 15.44-10.24Q14.48-10.72 13.12-11.12Q11.76-11.52 10.08-12L10.08-12Q8.04-12.56 6.54-13.22Q5.04-13.88 4.04-14.78Q3.04-15.68 2.54-16.86Q2.04-18.04 2.04-19.68L2.04-19.68Q2.04-21.84 2.84-23.52Q3.64-25.20 5.06-26.32Q6.48-27.44 8.36-28.02Q10.24-28.60 12.40-28.60L12.40-28.60Q15.40-28.60 17.92-27.66Q20.44-26.72 22.32-25.44L22.32-25.44Z M36.64 0.40L36.64 0.40Q34.08 0.40 32.04-0.48Q30-1.36 28.58-2.86Q27.16-4.36 26.40-6.32Q25.64-8.28 25.64-10.44L25.64-10.44Q25.64-12.64 26.40-14.60Q27.16-16.56 28.58-18.06Q30-19.56 32.04-20.44Q34.08-21.32 36.64-21.32L36.64-21.32Q39.20-21.32 41.22-20.44Q43.24-19.56 44.66-18.06Q46.08-16.56 46.84-14.60Q47.60-12.64 47.60-10.44L47.60-10.44Q47.60-8.28 46.84-6.32Q46.08-4.36 44.68-2.86Q43.28-1.36 41.24-0.48Q39.20 0.40 36.64 0.40ZM31.16-10.44L31.16-10.44Q31.16-9.04 31.58-7.90Q32-6.76 32.74-5.92Q33.48-5.08 34.48-4.62Q35.48-4.16 36.64-4.16L36.64-4.16Q37.80-4.16 38.80-4.62Q39.80-5.08 40.54-5.92Q41.28-6.76 41.70-7.92Q42.12-9.08 42.12-10.48L42.12-10.48Q42.12-11.84 41.70-13Q41.28-14.16 40.54-15Q39.80-15.84 38.80-16.30Q37.80-16.76 36.64-16.76L36.64-16.76Q35.48-16.76 34.48-16.28Q33.48-15.80 32.74-14.96Q32-14.12 31.58-12.96Q31.16-11.80 31.16-10.44Z M70.68-13.08L70.68 0L65.32 0L65.32-11.76Q65.32-14.28 64.44-15.44Q63.56-16.60 62.00-16.60L62.00-16.60Q61.20-16.60 60.36-16.28Q59.52-15.96 58.78-15.38Q58.04-14.80 57.44-14Q56.84-13.20 56.56-12.24L56.56-12.24L56.56 0L51.20 0L51.20-20.96L56.04-20.96L56.04-17.08Q57.20-19.08 59.40-20.20Q61.60-21.32 64.36-21.32L64.36-21.32Q66.32-21.32 67.56-20.60Q68.80-19.88 69.48-18.72Q70.16-17.56 70.42-16.08Q70.68-14.60 70.68-13.08L70.68-13.08Z M83.56 0.12L83.56 0.12Q81.44 0.12 79.72-0.72Q78-1.56 76.74-3.02Q75.48-4.48 74.80-6.40Q74.12-8.32 74.12-10.48L74.12-10.48Q74.12-12.76 74.84-14.72Q75.56-16.68 76.84-18.16Q78.12-19.64 79.92-20.48Q81.72-21.32 83.88-21.32L83.88-21.32Q86.32-21.32 88.16-20.22Q90-19.12 91.20-17.28L91.20-17.28L91.20-20.96L95.88-20.96L95.88-1Q95.88 1.32 95 3.16Q94.12 5 92.58 6.28Q91.04 7.56 88.90 8.24Q86.76 8.92 84.24 8.92L84.24 8.92Q80.80 8.92 78.46 7.78Q76.12 6.64 74.44 4.56L74.44 4.56L77.36 1.72Q78.56 3.20 80.38 4.04Q82.20 4.88 84.24 4.88L84.24 4.88Q85.48 4.88 86.62 4.54Q87.76 4.20 88.64 3.48Q89.52 2.76 90.02 1.64Q90.52 0.52 90.52-1L90.52-1L90.52-3.64Q89.48-1.84 87.60-0.86Q85.72 0.12 83.56 0.12ZM85.36-4.16L85.36-4.16Q86.24-4.16 87.04-4.44Q87.84-4.72 88.52-5.20Q89.20-5.68 89.72-6.32Q90.24-6.96 90.52-7.68L90.52-7.68L90.52-12.68Q89.80-14.52 88.26-15.64Q86.72-16.76 85.04-16.76L85.04-16.76Q83.80-16.76 82.80-16.22Q81.80-15.68 81.08-14.78Q80.36-13.88 79.98-12.72Q79.60-11.56 79.60-10.32L79.60-10.32Q79.60-9.04 80.04-7.92Q80.48-6.80 81.26-5.96Q82.04-5.12 83.08-4.64Q84.12-4.16 85.36-4.16Z M112.64 0.40L112.64 0.40Q110.24 0.40 108.36-0.68Q106.48-1.76 105.40-3.64L105.40-3.64L105.40 0L100.72 0L100.72-29.20L106.08-29.20L106.08-17.28Q107.20-19.20 109.02-20.26Q110.84-21.32 113.28-21.32L113.28-21.32Q115.32-21.32 117-20.44Q118.68-19.56 119.90-18.08Q121.12-16.60 121.78-14.60Q122.44-12.60 122.44-10.40L122.44-10.40Q122.44-8.12 121.70-6.16Q120.96-4.20 119.64-2.74Q118.32-1.28 116.52-0.44Q114.72 0.40 112.64 0.40ZM111.16-4.16L111.16-4.16Q112.44-4.16 113.52-4.66Q114.60-5.16 115.36-6Q116.12-6.84 116.54-7.96Q116.96-9.08 116.96-10.36L116.96-10.36Q116.96-11.64 116.56-12.80Q116.16-13.96 115.42-14.84Q114.68-15.72 113.68-16.24Q112.68-16.76 111.48-16.76L111.48-16.76Q109.68-16.76 108.26-15.58Q106.84-14.40 106.08-12.68L106.08-12.68L106.08-7.68Q106.36-6.88 106.90-6.24Q107.44-5.60 108.12-5.14Q108.80-4.68 109.60-4.42Q110.40-4.16 111.16-4.16Z M135.76 0.40L135.76 0.40Q133.20 0.40 131.16-0.48Q129.12-1.36 127.70-2.86Q126.28-4.36 125.52-6.32Q124.76-8.28 124.76-10.44L124.76-10.44Q124.76-12.64 125.52-14.60Q126.28-16.56 127.70-18.06Q129.12-19.56 131.16-20.44Q133.20-21.32 135.76-21.32L135.76-21.32Q138.32-21.32 140.34-20.44Q142.36-19.56 143.78-18.06Q145.20-16.56 145.96-14.60Q146.72-12.64 146.72-10.44L146.72-10.44Q146.72-8.28 145.96-6.32Q145.20-4.36 143.80-2.86Q142.40-1.36 140.36-0.48Q138.32 0.40 135.76 0.40ZM130.28-10.44L130.28-10.44Q130.28-9.04 130.70-7.90Q131.12-6.76 131.86-5.92Q132.60-5.08 133.60-4.62Q134.60-4.16 135.76-4.16L135.76-4.16Q136.92-4.16 137.92-4.62Q138.92-5.08 139.66-5.92Q140.40-6.76 140.82-7.92Q141.24-9.08 141.24-10.48L141.24-10.48Q141.24-11.84 140.82-13Q140.40-14.16 139.66-15Q138.92-15.84 137.92-16.30Q136.92-16.76 135.76-16.76L135.76-16.76Q134.60-16.76 133.60-16.28Q132.60-15.80 131.86-14.96Q131.12-14.12 130.70-12.96Q130.28-11.80 130.28-10.44Z M160 0.40L160 0.40Q157.44 0.40 155.40-0.48Q153.36-1.36 151.94-2.86Q150.52-4.36 149.76-6.32Q149-8.28 149-10.44L149-10.44Q149-12.64 149.76-14.60Q150.52-16.56 151.94-18.06Q153.36-19.56 155.40-20.44Q157.44-21.32 160-21.32L160-21.32Q162.56-21.32 164.58-20.44Q166.60-19.56 168.02-18.06Q169.44-16.56 170.20-14.60Q170.96-12.64 170.96-10.44L170.96-10.44Q170.96-8.28 170.20-6.32Q169.44-4.36 168.04-2.86Q166.64-1.36 164.60-0.48Q162.56 0.40 160 0.40ZM154.52-10.44L154.52-10.44Q154.52-9.04 154.94-7.90Q155.36-6.76 156.10-5.92Q156.84-5.08 157.84-4.62Q158.84-4.16 160-4.16L160-4.16Q161.16-4.16 162.16-4.62Q163.16-5.08 163.90-5.92Q164.64-6.76 165.06-7.92Q165.48-9.08 165.48-10.48L165.48-10.48Q165.48-11.84 165.06-13Q164.64-14.16 163.90-15Q163.16-15.84 162.16-16.30Q161.16-16.76 160-16.76L160-16.76Q158.84-16.76 157.84-16.28Q156.84-15.80 156.10-14.96Q155.36-14.12 154.94-12.96Q154.52-11.80 154.52-10.44Z M194.60 0L188.88 0L182.80-9.08L179.92-6.24L179.92 0L174.56 0L174.56-29.20L179.92-29.20L179.92-11.48L188.32-20.92L194.04-20.92L186.24-12.04L194.60 0Z"/></g>
</svg>
</g><g opacity="1" transform="rotate(0 418.0664 307.1049)">
<svg width="2.1761" height="79.7901" x="437.0664" y="307.1049" version="1.1" preserveAspectRatio="none" viewBox="0 0 2.1761 79.7901">
  <rect x="0" y="0" width="2.1761" height="79.7901" class="companyName shapeStroke-str" style="stroke-width:0;" rx="50%" ry="50%" />
</svg>
</g></svg>